<?xml version="1.0" standalone="no"?>
<!DOCTYPE svg PUBLIC "-//W3C//DTD SVG 20010904//EN"
 "http://www.w3.org/TR/2001/REC-SVG-20010904/DTD/svg10.dtd">
<svg version="1.0" xmlns="http://www.w3.org/2000/svg"
 width="256.000000pt" height="256.000000pt" viewBox="0 0 256.000000 256.000000"
 preserveAspectRatio="xMidYMid meet">

<g transform="translate(0.000000,256.000000) scale(0.100000,-0.100000)"
fill="#000000" stroke="none">
<path d="M919 2546 c-75 -21 -166 -75 -216 -130 -46 -49 -51 -51 -125 -62
-184 -27 -326 -145 -379 -315 -17 -55 -19 -96 -19 -418 0 -356 0 -358 23 -392
30 -45 81 -71 134 -67 l42 3 3 -490 c3 -481 3 -491 25 -531 27 -50 75 -97 122
-121 33 -17 80 -18 584 -21 361 -2 561 1 587 8 60 16 121 68 153 129 24 49 27
65 27 158 l0 103 143 0 c78 0 159 5 179 10 59 17 120 69 151 130 l28 55 -3
495 c-3 547 0 521 -69 589 -60 60 -79 66 -259 71 l-165 5 -3 73 c-3 72 -2 73
36 117 111 126 68 319 -86 387 -33 15 -61 19 -116 17 -72 -3 -73 -3 -110 33
-55 54 -110 72 -200 66 -62 -4 -78 -2 -97 14 -104 82 -267 117 -390 84z m246
-115 c28 -12 72 -40 98 -63 42 -35 52 -39 80 -33 18 4 58 9 90 12 57 5 58 4
95 -35 20 -22 47 -53 59 -68 20 -28 22 -29 55 -15 18 8 59 16 90 18 55 5 58 3
99 -35 38 -35 43 -44 46 -93 5 -63 -17 -107 -69 -139 -37 -23 -112 -27 -153
-8 -19 8 -31 8 -50 0 l-25 -12 0 -231 c0 -202 -2 -235 -17 -251 -18 -21 -53
-24 -71 -6 -8 8 -12 54 -12 140 0 209 -23 267 -125 314 -37 18 -68 24 -120 24
-67 0 -73 -2 -123 -40 -89 -67 -166 -67 -264 -1 -48 33 -70 41 -105 41 -48 0
-65 -13 -115 -88 -34 -51 -101 -91 -167 -99 -80 -9 -81 -12 -81 -260 0 -179
-2 -214 -16 -227 -19 -19 -44 -20 -68 -3 -16 11 -17 40 -14 372 l3 360 29 55
c62 120 168 185 319 198 l77 7 38 50 c43 58 114 109 181 130 64 21 173 14 236
-14z m615 -1351 l0 -780 -84 0 c-89 0 -116 -11 -116 -50 0 -38 27 -50 111 -50
43 0 79 -4 79 -9 0 -18 -41 -59 -74 -75 -30 -14 -95 -16 -560 -16 -579 0 -568
-1 -620 61 l-29 34 387 5 c329 4 388 7 396 20 14 22 12 47 -6 64 -13 14 -64
16 -400 16 l-384 0 2 681 3 682 46 13 c63 19 136 70 177 124 19 25 38 46 42
48 4 1 30 -13 59 -32 112 -76 229 -76 341 -1 59 40 119 46 171 19 49 -25 59
-65 59 -226 0 -159 10 -192 70 -226 l30 -17 0 -417 0 -417 22 -15 c29 -20 34
-20 58 4 19 19 20 33 20 433 l0 413 29 17 c16 9 39 37 50 60 19 39 21 61 21
230 l0 187 50 0 50 0 0 -780z m440 544 c61 -52 60 -39 60 -544 0 -508 0 -507
-61 -551 -32 -22 -44 -24 -186 -27 l-153 -3 0 50 0 51 131 0 c72 0 139 5 150
10 18 10 19 26 19 464 0 363 -3 456 -13 464 -8 7 -69 13 -148 14 l-134 3 -3
48 -3 47 155 0 c152 0 155 0 186 -26z m-140 -549 l0 -375 -100 0 -100 0 0 375
0 375 100 0 100 0 0 -375z"/>
<path d="M696 1544 c-14 -14 -16 -74 -16 -514 l0 -499 22 -15 c29 -20 34 -20
58 4 19 19 20 33 20 508 0 425 -2 490 -16 510 -18 26 -46 28 -68 6z"/>
<path d="M1096 1544 c-14 -14 -16 -74 -16 -514 l0 -499 22 -15 c29 -20 34 -20
58 4 19 19 20 33 20 508 0 425 -2 490 -16 510 -18 26 -46 28 -68 6z"/>
<path d="M1390 281 c-16 -31 -12 -49 15 -67 23 -15 27 -15 50 0 27 18 31 36
15 67 -14 26 -66 26 -80 0z"/>
</g>
</svg>
