<?xml version="1.0" encoding="utf-8"?>
<!-- Generator: Adobe Illustrator 26.0.3, SVG Export Plug-In . SVG Version: 6.00 Build 0)  -->
<svg version="1.1" id="Capa_1" xmlns="http://www.w3.org/2000/svg" xmlns:xlink="http://www.w3.org/1999/xlink" x="0px" y="0px"
	 viewBox="0 0 512 512" style="enable-background:new 0 0 512 512;" xml:space="preserve">
<g transform="translate(0.000000,256.000000) scale(0.100000,-0.100000)">
	<path d="M2043,2452.3c-144-40.3-318.8-144-414.8-249.6c-88.3-94.1-97.9-97.9-240-119.1c-353.3-51.8-626-278.4-727.8-604.9
		C627.8,1373.1,624,1294.4,624,676c0-683.6,0-687.5,44.2-752.7c57.6-86.4,155.5-136.3,257.3-128.7l80.7,5.8l5.8-940.9
		c5.8-923.6,5.8-942.9,48-1019.7c51.8-96,144-186.3,234.3-232.4c63.4-32.6,153.6-34.6,1121.4-40.3c693.2-3.8,1077.3,1.9,1127.2,15.4
		c115.2,30.7,232.4,130.6,293.8,247.7c46.1,94.1,51.8,124.8,51.8,303.4v197.8H4163c149.8,0,305.3,9.6,343.7,19.2
		c113.3,32.6,230.4,132.5,290,249.6l53.8,105.6l-5.8,950.5c-5.8,1050.4,0,1000.5-132.5,1131c-115.2,115.2-151.7,126.7-497.3,136.3
		l-316.8,9.6l-5.8,140.2c-5.8,138.3-3.8,140.2,69.1,224.7c213.1,242,130.6,612.6-165.1,743.1c-63.4,28.8-117.1,36.5-222.8,32.6
		c-138.3-5.8-140.2-5.8-211.2,63.4c-105.6,103.7-211.2,138.3-384.1,126.7c-119.1-7.7-149.8-3.8-186.3,26.9
		C2592.2,2448.4,2279.2,2515.6,2043,2452.3z M2515.4,2231.4c53.8-23,138.3-76.8,188.2-121c80.7-67.2,99.9-74.9,153.6-63.4
		c34.6,7.7,111.4,17.3,172.8,23c109.5,9.6,111.4,7.7,182.4-67.2c38.4-42.2,90.3-101.8,113.3-130.6c38.4-53.8,42.2-55.7,105.6-28.8
		c34.6,15.4,113.3,30.7,172.8,34.6c105.6,9.6,111.4,5.8,190.1-67.2c73-67.2,82.6-84.5,88.3-178.6c9.6-121-32.6-205.5-132.5-266.9
		c-71-44.2-215.1-51.8-293.8-15.4c-36.5,15.4-59.5,15.4-96,0l-48-23V883.4c0-387.9-3.8-451.3-32.6-482
		c-34.6-40.3-101.8-46.1-136.3-11.5c-15.4,15.4-23,103.7-23,268.8c0,401.3-44.2,512.7-240,603c-71,34.6-130.6,46.1-230.4,46.1
		c-128.7,0-140.2-3.8-236.2-76.8c-170.9-128.7-318.8-128.7-507-1.9c-92.2,63.4-134.4,78.7-201.6,78.7c-92.2,0-124.8-25-220.8-169
		c-65.3-97.9-193.9-174.7-320.7-190.1c-153.6-17.3-155.5-23-155.5-499.3c0-343.7-3.8-410.9-30.7-435.9
		c-36.5-36.5-84.5-38.4-130.6-5.8c-30.7,21.1-32.6,76.8-26.9,714.3l5.8,691.3l55.7,105.6c119.1,230.4,322.6,355.2,612.6,380.2
		l147.9,13.4l73,96c82.6,111.4,218.9,209.3,347.6,249.6C2185.1,2298.7,2394.4,2285.2,2515.4,2231.4z M3696.4-362.8v-1497.8h-161.3
		c-170.9,0-222.8-21.1-222.8-96c0-73,51.8-96,213.1-96c82.6,0,151.7-7.7,151.7-17.3c0-34.6-78.7-113.3-142.1-144
		c-57.6-26.9-182.4-30.7-1075.3-30.7c-1111.8,0-1090.7-1.9-1190.6,117.1l-55.7,65.3l743.1,9.6c631.8,7.7,745.1,13.4,760.4,38.4
		c26.9,42.2,23,90.3-11.5,122.9c-25,26.9-122.9,30.7-768.1,30.7H1200l3.8,1307.7l5.8,1309.6l88.3,25
		c121,36.5,261.2,134.4,339.9,238.1c36.5,48,73,88.3,80.7,92.2c7.7,1.9,57.6-25,113.3-61.4c215.1-145.9,439.7-145.9,654.8-1.9
		c113.3,76.8,228.5,88.3,328.4,36.5c94.1-48,113.3-124.8,113.3-434c0-305.3,19.2-368.7,134.4-434l57.6-32.6v-800.8v-800.8l42.2-28.8
		c55.7-38.4,65.3-38.4,111.4,7.7c36.5,36.5,38.4,63.4,38.4,831.5v793.1L3368,219c30.7,17.3,74.9,71,96,115.2
		c36.5,74.9,40.3,117.1,40.3,441.7V1135h96h96V-362.8z M4541.3,681.8c117.1-99.9,115.2-74.9,115.2-1044.6
		c0-975.5,0-973.6-117.1-1058.1c-61.4-42.2-84.5-46.1-357.2-51.8l-293.8-5.8v96v97.9H4140c138.3,0,266.9,9.6,288,19.2
		c34.6,19.2,36.5,49.9,36.5,891c0,697.1-5.8,875.6-25,891c-15.4,13.4-132.5,25-284.2,26.9l-257.3,5.8l-5.8,92.2l-5.8,90.3h297.6
		C4476,731.7,4481.8,731.7,4541.3,681.8z M4272.5-372.4v-720.1h-192h-192v720.1v720.1h192h192V-372.4z"/>
	<path d="M1614.8,528.2c-26.9-26.9-30.7-142.1-30.7-987v-958.2l42.2-28.8c55.7-38.4,65.3-38.4,111.4,7.7
		c36.5,36.5,38.4,63.4,38.4,975.5c0,816.1-3.8,940.9-30.7,979.3C1710.8,566.6,1657.1,570.4,1614.8,528.2z"/>
	<path d="M2382.9,528.2c-26.9-26.9-30.7-142.1-30.7-987v-958.2l42.2-28.8c55.7-38.4,65.3-38.4,111.4,7.7
		c36.5,36.5,38.4,63.4,38.4,975.5c0,816.1-3.8,940.9-30.7,979.3C2478.9,566.6,2425.2,570.4,2382.9,528.2z"/>
	<path d="M2947.5-1897.1c-30.7-59.5-23-94.1,28.8-128.7c44.2-28.8,51.8-28.8,96,0c51.8,34.6,59.5,69.1,28.8,128.7
		C3074.2-1847.2,2974.4-1847.2,2947.5-1897.1z"/>
</g>
</svg>
