<?xml version="1.0" encoding="utf-8"?>
<!-- Generator: Adobe Illustrator 26.0.3, SVG Export Plug-In . SVG Version: 6.00 Build 0)  -->
<svg version="1.1" id="Capa_1" xmlns="http://www.w3.org/2000/svg" xmlns:xlink="http://www.w3.org/1999/xlink" x="0px" y="0px"
	 viewBox="0 0 512 512" style="enable-background:new 0 0 512 512;" xml:space="preserve">
<g transform="translate(0.000000,512.000000) scale(0.100000,-0.100000)">
	<path d="M2612,5102.6c-74-27-117-64-144-123l-26-56l32-236c17-130,31-242,31-249c0-9-111-12-493-12c-370,0-496-3-505-12
		c-8-8-12-60-12-168v-157l-90-151l-90-151v-1582v-1582l90-136l90-137v-161c0-142,2-162,18-176c17-16,105-17,1055-17
		c1024,0,1037,0,1057,20c18,18,20,33,20,185v164l85,129l85,129v1582v1583l-85,142l-85,142v155c0,124-3,159-16,177
		c-15,22-19,22-250,22c-228,0-234,1-234,20c0,11,14,109,30,217c42,275,40,305-23,371c-68,71-90,77-307,79
		C2698,5115.6,2641,5112.6,2612,5102.6z M3029,4981.6c40-19,60-51,57-95c-1-19-16-129-34-245l-33-210l-189-3c-104-1-192,1-196,5
		c-4,5-22,115-39,246c-30,224-31,240-15,263c30,45,66,53,248,54C2958,4996.6,3004,4993.6,3029,4981.6z M3525,4211.6v-95l-957,2
		l-958,3l-3,93l-3,92h961h960V4211.6z M3624,3877.6l71-119v-1552v-1551l-70-104l-70-105h-990h-990l-70,105l-70,104v1551v1552l71,119
		l72,119h987h987L3624,3877.6z M3525,221.6v-105h-960h-960v98c0,54,3,102,7,105c3,4,435,7,960,7h953V221.6z"/>
	<path d="M2772,4869.6c-4-3-7-39-7-80v-73h60h60v80v80h-53C2802,4876.6,2775,4873.6,2772,4869.6z"/>
	<path d="M2370,2936.6c-12-4-25-14-31-21c-13-17-334-804-334-819c0-6,11-22,25-35c24-24,28-25,180-25c109,0,155-3,155-11
		c0-7-36-165-80-353c-45-187-79-352-78-366c4-35,49-59,80-41c27,15,827,1041,835,1070c3,13-4,29-21,45c-25,26-27,26-186,26
		c-88,0-160,2-160,4c0,3,43,106,95,230c52,124,95,234,95,243c0,26-12,40-43,52C2869,2948.6,2400,2949.6,2370,2936.6z M2795,2821.6
		c0-3-43-106-95-230c-52-123-95-235-95-249c0-50,18-56,182-56c82,0,148-4,146-9c-5-12-542-700-545-697c-1,1,25,116,57,255
		c33,139,60,260,60,269c0,8-7,24-17,34c-14,16-34,18-176,18c-123,0-158,3-154,13c9,22,238,581,254,620l15,37h184
		C2712,2826.6,2795,2824.6,2795,2821.6z"/>
</g>
</svg>
