<svg xmlns="http://www.w3.org/2000/svg" xmlns:xlink="http://www.w3.org/1999/xlink" width="500" zoomAndPan="magnify" viewBox="0 0 375 374.999991" height="500" preserveAspectRatio="xMidYMid meet" version="1.0"><defs><clipPath id="f82859732d"><path d="M 46.914062 11.910156 L 326.609375 11.910156 L 326.609375 363.960938 L 46.914062 363.960938 Z M 46.914062 11.910156 " clip-rule="nonzero"/></clipPath></defs><path fill="#ffffff" d="M 152.957031 193.273438 C 151.773438 223.519531 162.449219 250.207031 187.359375 278.679688 C 212.859375 250.207031 224.128906 221.738281 221.75 193.273438 C 205.148438 179.042969 193.882812 159.46875 187.359375 135.742188 C 180.832031 160.0625 169.5625 179.042969 152.957031 193.273438 " fill-opacity="1" fill-rule="nonzero"/><path fill="#ffffff" d="M 180.832031 100.753906 C 110.257812 105.5 73.488281 142.269531 68.742188 211.660156 C 139.3125 207.511719 175.496094 170.742188 180.832031 100.753906 " fill-opacity="1" fill-rule="nonzero"/><path fill="#ffffff" d="M 195.066406 40.855469 C 195.066406 37.292969 191.507812 33.738281 187.359375 33.738281 C 183.203125 33.738281 179.644531 36.703125 179.644531 40.855469 L 179.644531 88.898438 L 195.066406 88.898438 L 195.066406 40.855469 " fill-opacity="1" fill-rule="nonzero"/><path fill="#ffffff" d="M 234.207031 202.167969 C 233.617188 219.371094 228.875 236.570312 219.976562 253.171875 C 223.535156 259.105469 228.277344 265.035156 233.617188 269.78125 C 244.886719 280.457031 259.125 289.945312 276.917969 298.25 C 286.398438 268.597656 286.996094 241.910156 279.285156 219.371094 C 262.089844 215.8125 247.257812 210.476562 234.207031 202.167969 " fill-opacity="1" fill-rule="nonzero"/><path fill="#ffffff" d="M 140.503906 202.761719 C 128.046875 210.476562 112.628906 216.40625 95.429688 219.960938 C 87.71875 241.910156 88.3125 268.597656 97.210938 298.839844 C 115.003906 290.539062 129.234375 281.046875 140.503906 270.371094 C 146.433594 265.632812 150.585938 259.699219 154.738281 253.769531 C 145.246094 236.570312 141.097656 219.960938 140.503906 202.761719 " fill-opacity="1" fill-rule="nonzero"/><path fill="#ffffff" d="M 193.882812 100.753906 C 198.621094 170.742188 235.402344 206.914062 305.972656 211.660156 C 301.230469 142.269531 264.453125 106.09375 193.882812 100.753906 " fill-opacity="1" fill-rule="nonzero"/><g clip-path="url(#f82859732d)"><path fill="#ffffff" d="M 314.871094 221.738281 C 313.683594 222.925781 312.496094 223.519531 310.71875 223.519531 C 303.601562 222.925781 297.671875 222.335938 291.148438 221.738281 C 298.257812 246.648438 296.480469 275.117188 285.210938 307.738281 C 285.210938 309.515625 281.0625 312.480469 277.5 311.300781 C 259.125 303.585938 243.101562 294.09375 230.652344 283.425781 C 225.3125 306.550781 212.261719 329.675781 190.917969 352.214844 C 190.320312 353.398438 188.539062 353.996094 186.765625 353.996094 C 185.574219 353.996094 183.796875 353.398438 182.609375 352.214844 C 161.261719 329.675781 148.210938 306.550781 142.875 283.425781 C 130.417969 294.09375 114.40625 303.585938 96.027344 311.300781 C 93.058594 312.480469 89.5 311.886719 88.3125 307.738281 C 77.042969 275.710938 75.269531 246.648438 82.382812 221.738281 C 76.453125 222.925781 66.960938 224.117188 62.8125 223.519531 C 61.03125 222.925781 59.847656 222.925781 58.660156 221.738281 C 57.476562 220.554688 56.878906 219.371094 56.878906 217.589844 C 59.847656 142.269531 97.210938 99.566406 167.785156 90.675781 L 167.785156 40.855469 C 167.785156 30.175781 176.679688 21.875 187.359375 21.875 C 198.03125 21.875 206.929688 30.175781 206.929688 40.855469 L 206.929688 90.675781 C 277.5 99.566406 314.871094 142.269531 316.648438 217.589844 C 316.648438 219.371094 316.050781 220.554688 314.871094 221.738281 Z M 216.894531 82.078125 L 216.894531 40.855469 C 216.894531 24.898438 203.644531 11.910156 187.359375 11.910156 C 171.066406 11.910156 157.820312 24.898438 157.820312 40.855469 L 157.820312 82.085938 C 88.226562 94.023438 49.941406 140.582031 46.914062 217.589844 C 46.914062 221.90625 48.5 225.675781 51.617188 228.78125 C 54.367188 231.535156 57.316406 232.332031 58.902344 232.757812 L 59.648438 232.96875 C 60.21875 233.160156 60.808594 233.304688 61.410156 233.390625 C 62.554688 233.550781 63.964844 233.640625 65.566406 233.640625 C 66.832031 233.640625 68.199219 233.589844 69.640625 233.492188 C 65.984375 257.117188 69.0625 283.050781 78.730469 310.472656 C 80.699219 317.351562 86.445312 321.796875 93.359375 321.796875 C 95.507812 321.796875 97.648438 321.375 99.878906 320.484375 C 113.972656 314.578125 126.554688 307.765625 137.457031 300.171875 C 144.761719 320.410156 157.503906 340.191406 175.574219 359.277344 C 178.472656 362.164062 182.761719 363.960938 186.757812 363.960938 C 191.859375 363.960938 196.203125 361.921875 198.765625 358.421875 C 216.351562 339.707031 228.855469 320.175781 236.070312 300.175781 C 246.957031 307.765625 259.542969 314.570312 273.644531 320.484375 C 273.878906 320.578125 274.113281 320.667969 274.347656 320.746094 C 275.910156 321.265625 277.550781 321.53125 279.226562 321.53125 C 286.011719 321.53125 293.488281 316.953125 294.929688 310.113281 C 304.476562 282.125 307.4375 256.238281 303.777344 232.914062 C 305.742188 233.097656 307.761719 233.273438 309.886719 233.453125 C 310.160156 233.472656 310.441406 233.484375 310.71875 233.484375 C 315.027344 233.484375 318.792969 231.902344 321.914062 228.78125 C 325.027344 225.667969 326.609375 221.902344 326.609375 217.355469 C 324.800781 140.660156 286.917969 94.058594 216.894531 82.078125 " fill-opacity="1" fill-rule="nonzero"/></g><path fill="#ffffff" d="M 190.917969 291.726562 C 190.320312 292.90625 188.539062 293.503906 186.765625 293.503906 C 185.574219 293.503906 183.796875 292.90625 182.609375 291.726562 C 174.308594 282.828125 167.191406 273.339844 161.261719 264.441406 C 158.890625 267.40625 156.519531 270.96875 153.550781 273.933594 C 156.519531 295.875 167.785156 317.816406 187.359375 339.765625 C 206.929688 317.816406 218.199219 295.285156 219.976562 273.933594 C 217.605469 270.96875 214.644531 268.003906 212.261719 264.441406 C 206.332031 273.933594 199.21875 282.828125 190.917969 291.726562 " fill-opacity="1" fill-rule="nonzero"/></svg>