<?xml version="1.0" encoding="utf-8"?>
<!-- Generator: Adobe Illustrator 26.0.3, SVG Export Plug-In . SVG Version: 6.00 Build 0)  -->
<svg version="1.1" id="Capa_1" xmlns="http://www.w3.org/2000/svg" xmlns:xlink="http://www.w3.org/1999/xlink" x="0px" y="0px"
	 viewBox="0 0 512 512" style="enable-background:new 0 0 512 512;" xml:space="preserve">
<g transform="translate(0.000000,512.000000) scale(0.100000,-0.100000)">
	<path d="M1359.5,5108.1c-59-22-102-60-134-117l-29-53l-3-213l-4-212l-103-103c-192-190-327-444-446-838c-145-483-147-876-4-1329
		c58-185,68-271,63-578l-4-267l-47-140c-79-235-117-454-119-686c-1-109,2-133,24-196c50-142,165-278,286-339c46-23,70-28,127-28
		c79,0,128,18,234,86l63,42l47-28c125-74,188-98,258-98c81,0,129,15,224,73l72,43l46-28c179-106,281-117,416-42l61,33l34-28
		c71-60,71-60,701-57l574,3l54,30c63,35,114,98,136,169c12,39,20,261,40,1152c24,1003,25,1106,10,1133c-8,17-24,35-34,41
		c-13,6-232,10-634,10c-337,0-616,2-619,5s-2,26,3,51c21,110,29,304,19,442c-27,377-177,866-353,1147c-49,79-151,207-198,250l-44,40
		v230c0,218-1,232-22,271c-26,48-82,100-132,122C1870.5,5124.1,1414.5,5130.1,1359.5,5108.1z M1865.5,4902.1c6-5,9-114,7-267l-3-259
		l29-18c52-34,136-119,193-197c52-69,158-261,174-315l7-23h-665h-666l51,103c103,206,224,359,346,436l51,33l4,248
		c2,201,6,250,18,265c14,17,30,17,230,11C1759.5,4915.1,1860.5,4908.1,1865.5,4902.1z M2325.5,3695.1c12-20,85-285,104-378
		c20-94,45-265,39-269c-4-4-1722,17-1726,21c-7,6,29,210,55,313c13,53,40,147,61,209l36,112h713
		C1999.5,3703.1,2322.5,3699.1,2325.5,3695.1z M2190.5,2927.1l284-6l-6-117c-3-64-11-149-18-188l-12-73h-62c-67,0-109-21-124-64
		c-5-11-2-217,5-456s10-445,7-458l-5-23l-567,6c-311,3-616,8-676,11l-111,6l-1,201c0,221-14,330-59,482c-82,275-101,372-111,569
		l-6,128l589-6C1641.5,2936.1,2034.5,2930.1,2190.5,2927.1z M3747.5,2312.1c-3-17-6-112-6-210v-179h-638h-639l-6,152
		c-4,83-7,177-7,210v58h651h652L3747.5,2312.1z M3731.5,1716.1c0-176-31-1419-36-1441c-2-13-16-35-29-48l-24-24h-533
		c-575,0-561-1-589,52c-11,20-61,1522-52,1541c2,4,287,7,634,7h629V1716.1z M1616.5,1428.1c358-4,652-9,654-11c3-2,12-255,21-562
		c18-625,23-572-58-619c-62-37-108-29-217,37c-137,83-175,80-334-20c-89-55-122-54-225,6c-167,98-226,99-371,4c-91-59-115-65-163-41
		c-49,25-132,115-163,178c-22,45-24,59-23,208c1,213,28,367,108,608c19,56,37,120,41,142c14,88,13,86,48,81
		C952.5,1436.1,1259.5,1431.1,1616.5,1428.1z"/>
	<path d="M1089.5,3553.1c-78-42-123-142-99-222c28-93,99-148,191-148c167,0,260,193,153,320
		C1277.5,3571.1,1167.5,3594.1,1089.5,3553.1z M1232.5,3434.1c52-42,17-131-51-131c-44,0-74,31-74,75s30,75,74,75
		C1196.5,3453.1,1219.5,3445.1,1232.5,3434.1z"/>
	<path d="M1898.5,3265.1c-39-42-9-112,46-112c57,0,89,77,49,113C1968.5,3288.1,1918.5,3287.1,1898.5,3265.1z"/>
	<path d="M964.5,2824.1c-23-4-48-13-57-20c-38-32,0-243,71-387c29-60,57-99,121-162c76-78,82-86,82-125c1-251,196-476,448-519
		c378-64,699,314,577,679c-79,233-286,374-530,360l-89-5l-45,39c-53,48-164,103-246,124C1228.5,2826.1,1027.5,2836.1,964.5,2824.1z
		 M1223.5,2699.1c80-15,170-50,214-85l25-20l-38-24c-21-13-44-32-52-41c-18-22-22-21-72,19c-24,19-54,35-66,35c-22,0-63-31-63-47
		c1-30,18-55,55-83l44-33l-26-51c-15-28-28-53-30-55c-2-3-22,13-44,35c-50,48-121,193-142,286c-8,37-12,69-9,72
		C1029.5,2718.1,1145.5,2713.1,1223.5,2699.1z M1874.5,2496.1c158-74,244-216,235-388c-10-191-144-341-336-377
		c-166-31-356,69-428,226c-54,118-52,241,5,355c28,55,113,145,161,171C1620.5,2542.1,1764.5,2547.1,1874.5,2496.1z"/>
	<path d="M1604.5,2425.1c-170-61-256-261-181-423c31-68,82-120,151-156c70-36,188-39,258-7c111,52,179,149,187,270
		c6,94-15,158-75,224C1856.5,2431.1,1722.5,2467.1,1604.5,2425.1z M1779.5,2308.1c198-83,137-374-79-375c-14,0-49,12-77,26
		c-81,40-125,130-103,212C1552.5,2290.1,1671.5,2353.1,1779.5,2308.1z"/>
	<path d="M2826.5,1668.1c-5-2-22-6-38-9c-41-9-103-71-123-122c-43-112,34-242,153-260c182-27,301,185,181,322c-17,19-43,41-57,48
		C2915.5,1661.1,2843.5,1674.1,2826.5,1668.1z M2904.5,1526.1c8-10,19-30,22-45c6-22,1-33-23-58c-17-16-37-30-46-30
		c-28,0-64,22-75,47c-16,34-14,47,10,77C2817.5,1549.1,2878.5,1554.1,2904.5,1526.1z"/>
	<path d="M3381.5,1643.1c-37-37-21-94,33-113c24-9,63,11,76,39C3519.5,1634.1,3432.5,1694.1,3381.5,1643.1z"/>
	<path d="M3262.5,1177.1c-88-74,21-205,112-134c67,53,25,160-63,160C3301.5,1203.1,3279.5,1191.1,3262.5,1177.1z"/>
	<path d="M2911.5,820.1c-38-19-49-61-23-95c29-39,74-42,102-6c26,33,27,55,4,82C2970.5,828.1,2941.5,835.1,2911.5,820.1z"/>
	<path d="M3286.5,759.1c-38-17-90-72-104-109c-34-89,3-195,85-243c39-23,53-26,108-22c46,3,73,10,98,27c127,88,112,279-27,342
		C3399.5,776.1,3328.5,778.1,3286.5,759.1z M3416.5,628.1c49-48,17-125-52-125c-70,0-101,86-47,129
		C3352.5,660.1,3386.5,658.1,3416.5,628.1z"/>
	<path d="M1616.5,1241.1c-32-19-44-40-45-81c0-97,128-122,166-32C1769.5,1205.1,1687.5,1282.1,1616.5,1241.1z"/>
	<path d="M1966.5,1027.1c-102-53-142-167-92-264c34-68,85-103,157-108c47-3,68,0,106,18c139,68,141,281,2,349
		C2086.5,1047.1,2009.5,1050.1,1966.5,1027.1z M2098.5,901.1c15-14,23-33,23-54c0-69-87-101-129-48c-28,35-26,69,4,99
		C2026.5,929.1,2067.5,930.1,2098.5,901.1z"/>
	<path d="M1187.5,951.1c-53-76,52-151,107-77c33,45,1,99-58,99C1212.5,973.1,1197.5,966.1,1187.5,951.1z"/>
	<path d="M3213.5,4864.1c-6-4-30-59-53-122c-22-62-46-123-53-134c-8-12-60-41-116-65c-106-46-136-71-120-100c5-9,60-40,122-67
		l113-50l46-127c25-69,50-131,56-137c28-28,47-4,93,126c53,146,37,130,203,205c75,34,87,43,87,63c0,31-4,34-132,92l-108,48l-19,51
		c-10,28-31,86-46,129C3259.5,4852.1,3237.5,4879.1,3213.5,4864.1z"/>
	<path d="M4191.5,4216.1c-39-50-3-123,60-123s99,73,60,123c-17,21-30,27-60,27S4208.5,4237.1,4191.5,4216.1z"/>
	<path d="M4330.5,3745.1c-6-9-25-55-42-102l-32-84l-70-33c-97-46-100-48-103-70c-2-16,13-27,86-60l89-41l35-99c47-132,60-132,108,0
		l36,99l83,37c83,37,106,57,93,78c-4,6-46,29-93,51l-86,39l-33,96C4368.5,3753.1,4349.5,3776.1,4330.5,3745.1z"/>
	<path d="M3309.5,3464.1c-96-31-152-145-117-238c13-34,55-80,91-99c15-8,50-14,78-14c136,0,218,131,161,257
		C3488.5,3443.1,3385.5,3488.1,3309.5,3464.1z"/>
</g>
</svg>
