<?xml version="1.0" encoding="utf-8"?>
<!-- Generator: Adobe Illustrator 26.0.3, SVG Export Plug-In . SVG Version: 6.00 Build 0)  -->
<svg version="1.1" id="Capa_1" xmlns="http://www.w3.org/2000/svg" xmlns:xlink="http://www.w3.org/1999/xlink" x="0px" y="0px"
	 viewBox="0 0 512 512" style="enable-background:new 0 0 512 512;" xml:space="preserve">
<g transform="translate(0.000000,512.000000) scale(0.100000,-0.100000)">
	<path d="M1139,5091l-33-29l-5-656l-5-655l-59-36c-228-137-391-359-467-635c-22-81-23-104-27-512l-3-426l29-33c25-28,37-34,72-34
		s47,6,71,33l29,32v164v163l63,13c95,21,220,89,312,170c238,211,492,211,730,0c89-79,220-150,318-171l57-12v-864V740h-740H742
		l-3,291l-3,291l-28,24c-38,33-96,33-134,0l-28-24l-3-619c-2-452,1-625,9-646c25-59-11-57,929-57s904-2,929,57c9,21,11,392,9,1483
		l-3,1455l-24,85c-78,278-239,498-467,635l-59,36l-5,655l-5,656l-33,29l-32,29h-310h-310L1139,5091z M1661,4555v-365h-180h-180v365
		v365h180h180V4555z M1659,3819c3-196-2-187,132-259c136-73,272-215,344-357c54-108,78-216,83-380c3-84,4-153,1-153s-30,9-60,19
		c-71,24-120,56-204,131c-162,145-361,209-560,181c-154-22-268-75-391-184c-82-73-131-104-201-128c-30-10-57-19-60-19s-2,69,1,153
		c5,164,29,272,83,380c72,142,208,284,344,357c137,74,130,61,130,253c0,90,3,167,7,171c4,3,84,5,177,4l171-3L1659,3819z M2221,370
		V200h-740H741v170v170h740h740V370z"/>
	<path d="M3275,2953c-12-2-31-14-42-26c-21-22-317-832-348-949c-22-87-29-220-15-307c56-359,323-629,684-691l67-12V584V200h-243
		c-269,0-276-1-303-66c-12-29-12-39,0-68c29-69-4-66,646-66s617-3,646,66c12,29,12,39,0,68c-27,65-34,66-303,66h-243v384v384l43,7
		c189,29,357,113,484,242c193,196,276,500,209,761c-9,33-86,256-172,494c-110,307-162,440-180,458l-24,25l-443,1
		C3495,2957,3286,2956,3275,2953z M4071,2757c0-1,61-171,135-377l135-375l-24-22c-51-44-133-67-241-68c-92,0-105,3-165,31
		c-36,17-94,57-130,88c-133,117-245,166-401,174c-54,2-118,0-149-7c-29-6-55-10-57-8c-3,3,121,358,184,525l16,42h348
		C3914,2760,4071,2759,4071,2757z M3473,1990c69-21,121-55,206-131c67-61,175-115,272-135c132-28,263-12,413,51c22,9,23-22,2-118
		c-33-158-146-315-284-397c-198-117-473-124-691-17c-97,47-216,169-264,269c-56,117-78,250-60,361c5,30,16,44,49,67
		C3215,2008,3352,2028,3473,1990z"/>
	<path d="M1552,2275c-42-36-107-136-132-204l-21-58l-41,14c-60,21-179,13-235-16c-65-33-118-87-149-149c-38-77-39-190-4-270
		c27-60,113-144,163-161l33-11l1-82c0-70,4-91,27-135c102-197,360-241,512-87c61,63,90,135,90,227v77l33,11c50,17,136,101,163,161
		c35,80,34,193-4,270c-54,110-146,169-274,176c-46,2-83,8-83,12s20,34,45,66c25,31,45,68,45,81C1721,2285,1620,2331,1552,2275z
		 M1321,1825c85-44,74-173-18-212c-50-21-107-2-139,46C1094,1764,1208,1884,1321,1825z M1761,1825c85-44,74-173-18-212
		c-50-21-107-2-139,46C1534,1764,1648,1884,1761,1825z M1542,1443c66-39,76-134,19-185c-54-49-106-49-160,0
		C1298,1350,1423,1513,1542,1443z"/>
	<path d="M576,1797c-17-14-28-36-32-63c-5-36-1-46,25-75c25-28,37-34,72-34s47,6,72,34c26,29,30,39,25,75c-7,54-44,86-97,86
		C615,1820,593,1812,576,1797z"/>
</g>
</svg>
