<?xml version="1.0" encoding="utf-8"?>
<!-- Generator: Adobe Illustrator 26.0.3, SVG Export Plug-In . SVG Version: 6.00 Build 0)  -->
<svg version="1.1" id="Capa_1" xmlns="http://www.w3.org/2000/svg" xmlns:xlink="http://www.w3.org/1999/xlink" x="0px" y="0px"
	 viewBox="0 0 512 512" style="enable-background:new 0 0 512 512;" xml:space="preserve">
<g>
	<g>
		<path d="M413.9,155.6c-0.5-0.5-1-0.9-1.5-1.2c-0.5-0.4-1.1-0.7-1.7-0.9c-0.6-0.2-1.2-0.4-1.9-0.6c-3.2-0.7-6.7,0.4-9,2.7
			c-1.9,1.9-2.9,4.4-2.9,7.1c0,0.7,0.1,1.3,0.2,2c0.1,0.6,0.3,1.3,0.6,1.9c0.2,0.6,0.6,1.2,0.9,1.7c0.4,0.5,0.8,1.1,1.2,1.5
			c1.9,1.9,4.4,2.9,7.1,2.9c0.6,0,1.3-0.1,2-0.2c0.6-0.1,1.3-0.3,1.9-0.6c0.6-0.2,1.2-0.6,1.7-0.9c0.5-0.4,1.1-0.8,1.5-1.2
			c0.5-0.5,0.9-1,1.2-1.5c0.4-0.6,0.7-1.1,0.9-1.7c0.2-0.6,0.4-1.2,0.6-1.9c0.1-0.6,0.2-1.3,0.2-2
			C416.9,160,415.8,157.4,413.9,155.6z"/>
	</g>
</g>
<g>
	<g>
		<path d="M115.3,385.9c-0.1-0.6-0.3-1.3-0.6-1.9s-0.6-1.2-0.9-1.7c-0.4-0.5-0.8-1.1-1.2-1.5s-1-0.9-1.5-1.2
			c-0.5-0.4-1.1-0.7-1.7-0.9c-0.6-0.2-1.2-0.4-1.9-0.6c-1.3-0.3-2.6-0.3-3.9,0c-0.6,0.1-1.3,0.3-1.9,0.6c-0.6,0.2-1.2,0.6-1.7,0.9
			c-0.6,0.4-1.1,0.8-1.5,1.2s-0.9,1-1.2,1.5c-0.4,0.5-0.7,1.1-0.9,1.7s-0.4,1.2-0.6,1.9c-0.1,0.7-0.2,1.3-0.2,2c0,0.6,0.1,1.3,0.2,2
			c0.1,0.6,0.3,1.3,0.6,1.9s0.6,1.2,0.9,1.7c0.4,0.5,0.8,1.1,1.2,1.5s1,0.9,1.5,1.2c0.5,0.4,1.1,0.7,1.7,0.9
			c0.6,0.2,1.2,0.4,1.9,0.6s1.3,0.2,1.9,0.2c0.7,0,1.3-0.1,1.9-0.2s1.3-0.3,1.9-0.6c0.6-0.2,1.2-0.6,1.7-0.9
			c0.6-0.4,1.1-0.8,1.5-1.2c0.5-0.5,0.9-1,1.2-1.5c0.4-0.5,0.7-1.1,0.9-1.7s0.4-1.2,0.6-1.9c0.1-0.6,0.2-1.3,0.2-2
			C115.5,387.2,115.4,386.5,115.3,385.9z"/>
	</g>
</g>
<g transform="translate(0.000000,512.000000) scale(0.100000,-0.100000)">
	<path d="M3015,5103.1c-48-27-50-42-51-338v-277l-40-62c-60-93-82-160-87-269c-6-110,10-189,57-286c17-34,30-64,30-66
		c0-3-124-128-276-279c-295-294-345-356-411-512c-33-80-73-218-73-256v-21h-758c-829,0-830,0-884-57c-63-67-59,20-56-1235l3-1143
		l32-67c56-118,159-201,283-227c41-9,271-11,895-8c462,3,849,5,860,5s408-2,882-4c954-5,934-6,1057,58c78,42,172,136,214,214
		c65,125,63,74,60,1342l-3,1147l-28,100c-28,105-94,252-148,333c-18,26-157,173-310,327l-279,281l34,64c37,70,61,146,71,225
		c13,106-31,259-102,352l-32,42l-3,278c-3,249-5,282-21,306c-10,16-29,32-43,37c-15,6-199,10-437,10
		C3128,5116.1,3034,5113.1,3015,5103.1z M3744,4712.1v-205h-290h-290v205v205h290h290V4712.1z M3809,4346.1c111-132,105-294-15-454
		c-46-61-54-84-40-121c6-16,147-166,314-334s317-325,333-350c49-72,91-163,120-257l28-88v-1150v-1150l-26-55c-33-70-89-126-159-159
		l-55-26l-769-3c-733-2-768-2-761,15c40,92,44,119,45,290v172l703,3c781,3,732-1,799,72c58,63,58,61,58,853c0,500-3,738-11,768
		c-7,27-28,63-51,90c-47,53-107,75-209,75h-66l-23,71c-30,94-110,211-185,272c-115,93-239,137-385,137c-104,0-180-18-280-67
		c-135-66-265-224-300-365c-9-36-17-48-31-48c-13,0-19,7-19,23c-1,38-36,103-71,130c-51,38-100,47-252,47h-139l7,33
		c15,72,59,186,98,257c36,65,83,117,369,400c380,376,362,347,283,461c-107,151-111,321-9,454l26,35h323h323L3809,4346.1z
		 M3626,2868.1c153-59,275-211,302-376c12-69,12-69,151-75c120-6,127-7,153-33l27-27v-751v-751l-33-29l-32-29h-685h-685l2,808l3,807
		l57,3c68,4,79,14,95,95c36,175,151,304,323,365C3389,2905.1,3538,2902.1,3626,2868.1z M2624,1445.1c0-1026-1-1085-19-1123
		c-23-51-79-101-128-114c-52-15-1614-15-1666,0c-49,13-105,63-128,114c-18,38-19,97-19,1123v1082h980h980V1445.1z"/>
	<path d="M3126,3580.1c-50-53-66-96-52-139c15-44,45-64,96-64c38,0,47,5,88,51c56,62,62,108,20,158c-22,26-33,31-71,31
		C3167,3617.1,3157,3612.1,3126,3580.1z"/>
	<path d="M2961,3366.1c-10-6-81-90-158-186c-125-159-139-180-139-215c0-83,102-131,161-75c13,12,82,96,154,187
		c116,147,130,168,130,203C3109,3351.1,3022,3401.1,2961,3366.1z"/>
	<path d="M3654,597.1c-17-17-20-33-20-108c0-101,14-132,59-132c49,0,61,25,61,133c0,88-2,97-22,111
		C3702,622.1,3678,621.1,3654,597.1z"/>
	<path d="M3954,597.1c-17-17-20-33-20-108c0-101,14-132,59-132c49,0,61,25,61,133c0,88-2,97-22,111
		C4002,622.1,3978,621.1,3954,597.1z"/>
	<path d="M3351,2306.1c-105-25-221-119-271-220c-158-324,147-685,491-581c132,40,242,150,279,280c26,88,16,210-23,294
		C3744,2256.1,3544,2352.1,3351,2306.1z M3558,2177.1c196-74,251-334,101-482c-169-167-449-80-496,154c-15,72,2,152,44,215
		c34,51,108,107,161,122C3422,2202.1,3501,2198.1,3558,2177.1z"/>
	<path d="M4011,1659.1c-13-15-17-39-17-115c0-92,1-97,25-113c32-21,68-12,83,21c7,14,12,62,12,105c0,67-3,83-20,100
		C4069,1682.1,4032,1683.1,4011,1659.1z"/>
	<path d="M2904,1259.1c-68-34-77-121-17-166c28-21,39-21,543-24c344-2,528,1,554,8c47,13,72,45,72,95c0,49-25,82-69,94
		c-24,7-223,11-543,11C2983,1277.1,2936,1275.1,2904,1259.1z"/>
	<path d="M767,2425.1c-31-15-56-72-48-108c4-16,20-41,37-55c26-22,39-25,108-25c92,0,123,9,146,46c28,42,22,93-15,126
		c-29,26-37,28-119,27C828,2436.1,779,2431.1,767,2425.1z"/>
	<path d="M1145,2423.1c-59-33-67-102-17-152l34-34h296c322,0,340,3,364,55c21,45,15,84-17,116l-29,29h-304
		C1240,2436.1,1163,2433.1,1145,2423.1z"/>
	<path d="M1134,1802.1c-81-26-120-70-186-209l-59-126h-67c-117,0-109,34-106-474l3-433l30-48c22-36,45-57,84-77l53-28h757h757l51,25
		c54,27,97,78,113,136c6,20,10,208,10,446c0,400-1,414-20,433s-33,20-425,20c-401,0-405,0-405,20c0,12-9,38-19,58
		c-39,76-75,100-317,210C1262,1813.1,1201,1824.1,1134,1802.1z M1402,1614.1c142-65,202-106,202-138c0-5-119-9-290-9h-290l10,24
		c19,51,79,163,94,175c22,18,67,30,96,24C1238,1687.1,1318,1653.1,1402,1614.1z M1568,1325.1c-3-12-33-76-65-142
		c-62-130-87-156-150-156c-37,0-330,130-366,163c-34,30-47,80-33,122l12,35h304h305L1568,1325.1z M1744,1327.1c-45-25-53-25-40,0
		c7,14,21,20,43,20l32-1L1744,1327.1z M2454,1170.1c0-97-4-173-8-168c-9,10-152,331-152,340c0,3,36,5,80,5h80V1170.1z M2129,1323.1
		c43-18,53-34,136-218c74-164,81-202,50-254c-20-32-35-40-237-130c-129-57-158-63-203-40c-38,20-47,35-130,224
		c-102,229-97,245,96,332c163,74,226,99,241,100C2089,1337.1,2110,1331.1,2129,1323.1z M913,1096.1c21-19,115-69,208-111
		c151-70,176-78,229-78c72,0,134,26,180,76l33,35l14-33c73-170,143-319,163-345c14-18,46-45,72-60c39-23,59-28,117-28
		c65,0,81,5,238,75c179,79,233,116,263,177l19,38l3-100c4-130-2-158-39-189l-31-26h-739H904l-32,29l-33,29l-2,309l-3,308l20-36
		C865,1145.1,891,1114.1,913,1096.1z"/>
	<path d="M1856,5078.1c-7-4-35-68-62-142c-27-73-52-135-57-136c-57-20-219-102-227-115c-18-30,5-50,115-100c57-26,108-49,112-51
		c5-1,30-63,57-136c27-74,55-138,62-142c26-16,46,14,88,133c23,68,46,128,51,134s59,33,120,60c167,73,167,94,0,168
		c-61,27-115,54-120,60s-28,66-51,134C1902,5064.1,1882,5094.1,1856,5078.1z"/>
	<path d="M956,5044.1c-46-49-12-127,55-127c46,0,77,30,77,75C1088,5061.1,1003,5094.1,956,5044.1z"/>
	<path d="M1570,3732.1c-83-29-134-112-123-198c17-129,174-199,282-126c36,25,85,107,85,143c0,79-63,165-135,185
		C1629,3750.1,1618,3749.1,1570,3732.1z"/>
	<path d="M613,3500.1l-34-98l-85-42c-131-64-131-75,3-134c73-32,78-37,94-79c51-140,58-155,77-155c15,0,26,21,54,99l36,99l85,39
		c47,21,89,44,93,51c13,21-10,41-94,78l-83,36l-36,99c-27,77-40,100-56,102C650,3598.1,642,3584.1,613,3500.1z"/>
</g>
</svg>
